<?xml version="1.0" encoding="UTF-8" standalone="no"?>
<svg
   version="1.2"
   viewBox="0 0 1576.3 800"
   width="1576.3"
   height="800"
   id="svg20"
   sodipodi:docname="cinema-audience.svg"
   inkscape:version="1.4 (86a8ad7, 2024-10-11)"
   xmlns:inkscape="http://www.inkscape.org/namespaces/inkscape"
   xmlns:sodipodi="http://sodipodi.sourceforge.net/DTD/sodipodi-0.dtd"
   xmlns="http://www.w3.org/2000/svg"
   xmlns:svg="http://www.w3.org/2000/svg"
   xmlns:rdf="http://www.w3.org/1999/02/22-rdf-syntax-ns#"
   xmlns:cc="http://creativecommons.org/ns#"
   xmlns:dc="http://purl.org/dc/elements/1.1/">
  <defs
     id="defs20" />
  <sodipodi:namedview
     id="namedview20"
     pagecolor="#ffffff"
     bordercolor="#000000"
     borderopacity="0.25"
     inkscape:showpageshadow="2"
     inkscape:pageopacity="0.0"
     inkscape:pagecheckerboard="0"
     inkscape:deskcolor="#d1d1d1"
     inkscape:zoom="0.30722222"
     inkscape:cx="484.99096"
     inkscape:cy="340.14467"
     inkscape:window-width="1304"
     inkscape:window-height="745"
     inkscape:window-x="54"
     inkscape:window-y="-8"
     inkscape:window-maximized="1"
     inkscape:current-layer="&lt;Group&gt;" />
  <title
     id="title1">cinema-audience-pdv</title>
  <style
     id="style1">
		.s0 { fill: #e6e6e6 } 
		.s1 { fill: #524747 } 
		.s2 { fill: #423936 } 
		.s3 { fill: #26201e } 
		.s4 { fill: #cc3300 } 
		.s5 { fill: #b52d00 } 
		.s6 { fill: #fcd4c7 } 
		.s7 { fill: #edbcab } 
	</style>
  <g
     id="publicdomainvectors.org"
     transform="translate(338.4,-396.5)">
    <g
       id="&lt;Group&gt;">
      <g
         id="g24"
         style="display:inline"
         transform="translate(4.8828125e-5,555.45)">
        <g
           id="g23"
           style="display:inline">
          <path
             id="path2"
             class="s2"
             d="m 377.5,435.3 c 19.3,0 35,15.7 35,35 0,14.8 -9.2,35 -22.1,43.8 v 15.2 c 19.6,7.1 33.9,29.8 33.9,56.8 0,32.7 -20.9,59.1 -46.8,59.1 -25.9,0 -46.9,-26.4 -46.9,-59.1 0,-27 14.4,-49.7 34,-56.8 v -15.2 c -13,-8.8 -22.1,-29 -22.1,-43.8 0,-19.3 15.6,-35 35,-35 z" />
          <path
             id="path3"
             class="s2"
             d="m 521.4,435.3 c 19.3,0 35,15.7 35,35 0,14.8 -9.2,35 -22.1,43.8 v 15.2 c 19.6,7.1 34,29.8 34,56.8 0,32.7 -21,59.1 -46.9,59.1 -25.9,0 -46.9,-26.4 -46.9,-59.1 0,-27 14.4,-49.7 34,-56.8 v -15.2 c -12.9,-8.8 -22.1,-29 -22.1,-43.8 0,-19.3 15.7,-35 35,-35 z" />
          <path
             id="path4"
             class="s3"
             d="m 306.5,396.5 c 19.3,0 35,15.6 35,35 0,14.7 -9.2,35 -22.1,43.7 v 15.3 c 19.6,7 33.9,29.8 33.9,56.8 0,32.6 -20.9,59.1 -46.8,59.1 -25.9,0 -46.9,-26.5 -46.9,-59.1 0,-27 14.4,-49.8 34,-56.8 v -15.3 c -13,-8.7 -22.1,-29 -22.1,-43.7 0,-19.4 15.7,-35 35,-35 z" />
          <path
             id="path5"
             class="s3"
             d="m 449.8,396.5 c 19.3,0 34.9,15.6 34.9,35 0,14.7 -9.1,35 -22,43.7 v 15.3 c 19.6,7 33.9,29.8 33.9,56.8 0,32.6 -21,59.1 -46.8,59.1 -25.9,0 -46.9,-26.5 -46.9,-59.1 0,-27 14.4,-49.8 34,-56.8 v -15.3 c -13,-8.7 -22.1,-29 -22.1,-43.7 0,-19.4 15.6,-35 35,-35 z" />
          <path
             id="path6"
             class="s3"
             d="m 593.1,396.5 c 19.3,0 34.9,15.6 34.9,35 0,14.7 -9.1,35 -22.1,43.7 v 15.3 c 19.7,7 34,29.8 34,56.8 0,32.6 -21,59.1 -46.8,59.1 -25.9,0 -46.9,-26.5 -46.9,-59.1 0,-27 14.3,-49.8 34,-56.8 v -15.3 c -13,-8.7 -22.1,-29 -22.1,-43.7 0,-19.4 15.6,-35 35,-35 z" />
        </g>
        <g
           id="g22"
           style="display:inline">
          <path
             id="path15"
             class="s4"
             d="M 234.8,709 H 378.1 V 573.1 c 0,-39.4 -32.2,-71.7 -71.6,-71.7 -39.4,0 -71.7,32.3 -71.7,71.7 z" />
          <path
             id="path16"
             class="s5"
             d="m 358,709 h 20.1 V 573.1 c 0,-39.4 -32.2,-71.7 -71.6,-71.7 28.3,0 51.5,32.3 51.5,71.7 z" />
          <path
             id="path17"
             class="s4"
             d="M 378.1,709 H 521.4 V 573.1 c 0,-39.4 -32.2,-71.7 -71.6,-71.7 -39.4,0 -71.7,32.3 -71.7,71.7 z" />
          <path
             id="path18"
             class="s5"
             d="m 501.3,709 h 20.1 V 573.1 c 0,-39.4 -32.2,-71.7 -71.6,-71.7 28.3,0 51.5,32.3 51.5,71.7 z" />
          <path
             id="path19"
             class="s4"
             d="M 521.4,709 H 664.7 V 573.1 c 0,-39.4 -32.2,-71.7 -71.6,-71.7 -39.5,0 -71.7,32.3 -71.7,71.7 z" />
          <path
             id="path20"
             class="s5"
             d="m 644.6,709 h 20.1 V 573.1 c 0,-39.4 -32.2,-71.7 -71.6,-71.7 28.3,0 51.5,32.3 51.5,71.7 z" />
        </g>
      </g>
      <g
         id="g31"
         style="display:inline"
         transform="translate(-286.59995,555.45)">
        <g
           id="g25"
           style="display:inline">
          <path
             id="path1"
             class="s2"
             d="m 377.5,435.3 c 19.3,0 35,15.7 35,35 0,14.8 -9.2,35 -22.1,43.8 v 15.2 c 19.6,7.1 33.9,29.8 33.9,56.8 0,32.7 -20.9,59.1 -46.8,59.1 -25.9,0 -46.9,-26.4 -46.9,-59.1 0,-27 14.4,-49.7 34,-56.8 v -15.2 c -13,-8.8 -22.1,-29 -22.1,-43.8 0,-19.3 15.6,-35 35,-35 z" />
          <path
             id="path21"
             class="s2"
             d="m 521.4,435.3 c 19.3,0 35,15.7 35,35 0,14.8 -9.2,35 -22.1,43.8 v 15.2 c 19.6,7.1 34,29.8 34,56.8 0,32.7 -21,59.1 -46.9,59.1 -25.9,0 -46.9,-26.4 -46.9,-59.1 0,-27 14.4,-49.7 34,-56.8 v -15.2 c -12.9,-8.8 -22.1,-29 -22.1,-43.8 0,-19.3 15.7,-35 35,-35 z" />
          <path
             id="path22"
             class="s3"
             d="m 306.5,396.5 c 19.3,0 35,15.6 35,35 0,14.7 -9.2,35 -22.1,43.7 v 15.3 c 19.6,7 33.9,29.8 33.9,56.8 0,32.6 -20.9,59.1 -46.8,59.1 -25.9,0 -46.9,-26.5 -46.9,-59.1 0,-27 14.4,-49.8 34,-56.8 v -15.3 c -13,-8.7 -22.1,-29 -22.1,-43.7 0,-19.4 15.7,-35 35,-35 z" />
          <path
             id="path23"
             class="s3"
             d="m 449.8,396.5 c 19.3,0 34.9,15.6 34.9,35 0,14.7 -9.1,35 -22,43.7 v 15.3 c 19.6,7 33.9,29.8 33.9,56.8 0,32.6 -21,59.1 -46.8,59.1 -25.9,0 -46.9,-26.5 -46.9,-59.1 0,-27 14.4,-49.8 34,-56.8 v -15.3 c -13,-8.7 -22.1,-29 -22.1,-43.7 0,-19.4 15.6,-35 35,-35 z" />
          <path
             id="path24"
             class="s3"
             d="m 593.1,396.5 c 19.3,0 34.9,15.6 34.9,35 0,14.7 -9.1,35 -22.1,43.7 v 15.3 c 19.7,7 34,29.8 34,56.8 0,32.6 -21,59.1 -46.8,59.1 -25.9,0 -46.9,-26.5 -46.9,-59.1 0,-27 14.3,-49.8 34,-56.8 v -15.3 c -13,-8.7 -22.1,-29 -22.1,-43.7 0,-19.4 15.6,-35 35,-35 z" />
        </g>
        <g
           id="g30"
           style="display:inline">
          <path
             id="path25"
             class="s4"
             d="M 234.8,709 H 378.1 V 573.1 c 0,-39.4 -32.2,-71.7 -71.6,-71.7 -39.4,0 -71.7,32.3 -71.7,71.7 z" />
          <path
             id="path26"
             class="s5"
             d="m 358,709 h 20.1 V 573.1 c 0,-39.4 -32.2,-71.7 -71.6,-71.7 28.3,0 51.5,32.3 51.5,71.7 z" />
          <path
             id="path27"
             class="s4"
             d="M 378.1,709 H 521.4 V 573.1 c 0,-39.4 -32.2,-71.7 -71.6,-71.7 -39.4,0 -71.7,32.3 -71.7,71.7 z" />
          <path
             id="path28"
             class="s5"
             d="m 501.3,709 h 20.1 V 573.1 c 0,-39.4 -32.2,-71.7 -71.6,-71.7 28.3,0 51.5,32.3 51.5,71.7 z" />
          <path
             id="path29"
             class="s4"
             d="M 521.4,709 H 664.7 V 573.1 c 0,-39.4 -32.2,-71.7 -71.6,-71.7 -39.5,0 -71.7,32.3 -71.7,71.7 z" />
          <path
             id="path30"
             class="s5"
             d="m 644.6,709 h 20.1 V 573.1 c 0,-39.4 -32.2,-71.7 -71.6,-71.7 28.3,0 51.5,32.3 51.5,71.7 z" />
        </g>
      </g>
      <g
         id="g42"
         style="display:inline"
         transform="translate(286.60005,555.45)">
        <g
           id="g35"
           style="display:inline">
          <path
             id="path31"
             class="s2"
             d="m 377.5,435.3 c 19.3,0 35,15.7 35,35 0,14.8 -9.2,35 -22.1,43.8 v 15.2 c 19.6,7.1 33.9,29.8 33.9,56.8 0,32.7 -20.9,59.1 -46.8,59.1 -25.9,0 -46.9,-26.4 -46.9,-59.1 0,-27 14.4,-49.7 34,-56.8 v -15.2 c -13,-8.8 -22.1,-29 -22.1,-43.8 0,-19.3 15.6,-35 35,-35 z" />
          <path
             id="path32"
             class="s2"
             d="m 521.4,435.3 c 19.3,0 35,15.7 35,35 0,14.8 -9.2,35 -22.1,43.8 v 15.2 c 19.6,7.1 34,29.8 34,56.8 0,32.7 -21,59.1 -46.9,59.1 -25.9,0 -46.9,-26.4 -46.9,-59.1 0,-27 14.4,-49.7 34,-56.8 v -15.2 c -12.9,-8.8 -22.1,-29 -22.1,-43.8 0,-19.3 15.7,-35 35,-35 z" />
          <path
             id="path33"
             class="s3"
             d="m 306.5,396.5 c 19.3,0 35,15.6 35,35 0,14.7 -9.2,35 -22.1,43.7 v 15.3 c 19.6,7 33.9,29.8 33.9,56.8 0,32.6 -20.9,59.1 -46.8,59.1 -25.9,0 -46.9,-26.5 -46.9,-59.1 0,-27 14.4,-49.8 34,-56.8 v -15.3 c -13,-8.7 -22.1,-29 -22.1,-43.7 0,-19.4 15.7,-35 35,-35 z" />
          <path
             id="path34"
             class="s3"
             d="m 449.8,396.5 c 19.3,0 34.9,15.6 34.9,35 0,14.7 -9.1,35 -22,43.7 v 15.3 c 19.6,7 33.9,29.8 33.9,56.8 0,32.6 -21,59.1 -46.8,59.1 -25.9,0 -46.9,-26.5 -46.9,-59.1 0,-27 14.4,-49.8 34,-56.8 v -15.3 c -13,-8.7 -22.1,-29 -22.1,-43.7 0,-19.4 15.6,-35 35,-35 z" />
          <path
             id="path35"
             class="s3"
             d="m 593.1,396.5 c 19.3,0 34.9,15.6 34.9,35 0,14.7 -9.1,35 -22.1,43.7 v 15.3 c 19.7,7 34,29.8 34,56.8 0,32.6 -21,59.1 -46.8,59.1 -25.9,0 -46.9,-26.5 -46.9,-59.1 0,-27 14.3,-49.8 34,-56.8 v -15.3 c -13,-8.7 -22.1,-29 -22.1,-43.7 0,-19.4 15.6,-35 35,-35 z" />
        </g>
        <g
           id="g41"
           style="display:inline">
          <path
             id="path36"
             class="s4"
             d="M 234.8,709 H 378.1 V 573.1 c 0,-39.4 -32.2,-71.7 -71.6,-71.7 -39.4,0 -71.7,32.3 -71.7,71.7 z"
             style="display:inline" />
          <path
             id="path37"
             class="s5"
             d="m 358,709 h 20.1 V 573.1 c 0,-39.4 -32.2,-71.7 -71.6,-71.7 28.3,0 51.5,32.3 51.5,71.7 z" />
          <path
             id="path38"
             class="s4"
             d="M 378.1,709 H 521.4 V 573.1 c 0,-39.4 -32.2,-71.7 -71.6,-71.7 -39.4,0 -71.7,32.3 -71.7,71.7 z" />
          <path
             id="path39"
             class="s5"
             d="m 501.3,709 h 20.1 V 573.1 c 0,-39.4 -32.2,-71.7 -71.6,-71.7 28.3,0 51.5,32.3 51.5,71.7 z" />
          <path
             id="path40"
             class="s4"
             d="M 521.4,709 H 664.7 V 573.1 c 0,-39.4 -32.2,-71.7 -71.6,-71.7 -39.5,0 -71.7,32.3 -71.7,71.7 z" />
          <path
             id="path41"
             class="s5"
             d="m 644.6,709 h 20.1 V 573.1 c 0,-39.4 -32.2,-71.7 -71.6,-71.7 28.3,0 51.5,32.3 51.5,71.7 z"
             style="display:inline" />
        </g>
      </g>
      <g
         id="g53"
         style="display:inline"
         transform="translate(-573.19995,555.45)">
        <g
           id="g46"
           style="display:inline">
          <path
             id="path42"
             class="s2"
             d="m 377.5,435.3 c 19.3,0 35,15.7 35,35 0,14.8 -9.2,35 -22.1,43.8 v 15.2 c 19.6,7.1 33.9,29.8 33.9,56.8 0,32.7 -20.9,59.1 -46.8,59.1 -25.9,0 -46.9,-26.4 -46.9,-59.1 0,-27 14.4,-49.7 34,-56.8 v -15.2 c -13,-8.8 -22.1,-29 -22.1,-43.8 0,-19.3 15.6,-35 35,-35 z" />
          <path
             id="path43"
             class="s2"
             d="m 521.4,435.3 c 19.3,0 35,15.7 35,35 0,14.8 -9.2,35 -22.1,43.8 v 15.2 c 19.6,7.1 34,29.8 34,56.8 0,32.7 -21,59.1 -46.9,59.1 -25.9,0 -46.9,-26.4 -46.9,-59.1 0,-27 14.4,-49.7 34,-56.8 v -15.2 c -12.9,-8.8 -22.1,-29 -22.1,-43.8 0,-19.3 15.7,-35 35,-35 z" />
          <path
             id="path44"
             class="s3"
             d="m 306.5,396.5 c 19.3,0 35,15.6 35,35 0,14.7 -9.2,35 -22.1,43.7 v 15.3 c 19.6,7 33.9,29.8 33.9,56.8 0,32.6 -20.9,59.1 -46.8,59.1 -25.9,0 -46.9,-26.5 -46.9,-59.1 0,-27 14.4,-49.8 34,-56.8 v -15.3 c -13,-8.7 -22.1,-29 -22.1,-43.7 0,-19.4 15.7,-35 35,-35 z" />
          <path
             id="path45"
             class="s3"
             d="m 449.8,396.5 c 19.3,0 34.9,15.6 34.9,35 0,14.7 -9.1,35 -22,43.7 v 15.3 c 19.6,7 33.9,29.8 33.9,56.8 0,32.6 -21,59.1 -46.8,59.1 -25.9,0 -46.9,-26.5 -46.9,-59.1 0,-27 14.4,-49.8 34,-56.8 v -15.3 c -13,-8.7 -22.1,-29 -22.1,-43.7 0,-19.4 15.6,-35 35,-35 z" />
          <path
             id="path46"
             class="s3"
             d="m 593.1,396.5 c 19.3,0 34.9,15.6 34.9,35 0,14.7 -9.1,35 -22.1,43.7 v 15.3 c 19.7,7 34,29.8 34,56.8 0,32.6 -21,59.1 -46.8,59.1 -25.9,0 -46.9,-26.5 -46.9,-59.1 0,-27 14.3,-49.8 34,-56.8 v -15.3 c -13,-8.7 -22.1,-29 -22.1,-43.7 0,-19.4 15.6,-35 35,-35 z" />
        </g>
        <g
           id="g52"
           style="display:inline">
          <path
             id="path47"
             class="s4"
             d="M 234.8,709 H 378.1 V 573.1 c 0,-39.4 -32.2,-71.7 -71.6,-71.7 -39.4,0 -71.7,32.3 -71.7,71.7 z" />
          <path
             id="path48"
             class="s5"
             d="m 358,709 h 20.1 V 573.1 c 0,-39.4 -32.2,-71.7 -71.6,-71.7 28.3,0 51.5,32.3 51.5,71.7 z" />
          <path
             id="path49"
             class="s4"
             d="M 378.1,709 H 521.4 V 573.1 c 0,-39.4 -32.2,-71.7 -71.6,-71.7 -39.4,0 -71.7,32.3 -71.7,71.7 z" />
          <path
             id="path50"
             class="s5"
             d="m 501.3,709 h 20.1 V 573.1 c 0,-39.4 -32.2,-71.7 -71.6,-71.7 28.3,0 51.5,32.3 51.5,71.7 z" />
          <path
             id="path51"
             class="s4"
             d="M 521.4,709 H 664.7 V 573.1 c 0,-39.4 -32.2,-71.7 -71.6,-71.7 -39.5,0 -71.7,32.3 -71.7,71.7 z" />
          <path
             id="path52"
             class="s5"
             d="m 644.6,709 h 20.1 V 573.1 c 0,-39.4 -32.2,-71.7 -71.6,-71.7 28.3,0 51.5,32.3 51.5,71.7 z" />
        </g>
      </g>
      <g
         id="g64"
         style="display:inline"
         transform="translate(573.20005,555.45)">
        <g
           id="g57"
           style="display:inline">
          <path
             id="path53"
             class="s2"
             d="m 377.5,435.3 c 19.3,0 35,15.7 35,35 0,14.8 -9.2,35 -22.1,43.8 v 15.2 c 19.6,7.1 33.9,29.8 33.9,56.8 0,32.7 -20.9,59.1 -46.8,59.1 -25.9,0 -46.9,-26.4 -46.9,-59.1 0,-27 14.4,-49.7 34,-56.8 v -15.2 c -13,-8.8 -22.1,-29 -22.1,-43.8 0,-19.3 15.6,-35 35,-35 z" />
          <path
             id="path54"
             class="s2"
             d="m 521.4,435.3 c 19.3,0 35,15.7 35,35 0,14.8 -9.2,35 -22.1,43.8 v 15.2 c 19.6,7.1 34,29.8 34,56.8 0,32.7 -21,59.1 -46.9,59.1 -25.9,0 -46.9,-26.4 -46.9,-59.1 0,-27 14.4,-49.7 34,-56.8 v -15.2 c -12.9,-8.8 -22.1,-29 -22.1,-43.8 0,-19.3 15.7,-35 35,-35 z" />
          <path
             id="path55"
             class="s3"
             d="m 306.5,396.5 c 19.3,0 35,15.6 35,35 0,14.7 -9.2,35 -22.1,43.7 v 15.3 c 19.6,7 33.9,29.8 33.9,56.8 0,32.6 -20.9,59.1 -46.8,59.1 -25.9,0 -46.9,-26.5 -46.9,-59.1 0,-27 14.4,-49.8 34,-56.8 v -15.3 c -13,-8.7 -22.1,-29 -22.1,-43.7 0,-19.4 15.7,-35 35,-35 z" />
          <path
             id="path56"
             class="s3"
             d="m 449.8,396.5 c 19.3,0 34.9,15.6 34.9,35 0,14.7 -9.1,35 -22,43.7 v 15.3 c 19.6,7 33.9,29.8 33.9,56.8 0,32.6 -21,59.1 -46.8,59.1 -25.9,0 -46.9,-26.5 -46.9,-59.1 0,-27 14.4,-49.8 34,-56.8 v -15.3 c -13,-8.7 -22.1,-29 -22.1,-43.7 0,-19.4 15.6,-35 35,-35 z" />
          <path
             id="path57"
             class="s3"
             d="m 593.1,396.5 c 19.3,0 34.9,15.6 34.9,35 0,14.7 -9.1,35 -22.1,43.7 v 15.3 c 19.7,7 34,29.8 34,56.8 0,32.6 -21,59.1 -46.8,59.1 -25.9,0 -46.9,-26.5 -46.9,-59.1 0,-27 14.3,-49.8 34,-56.8 v -15.3 c -13,-8.7 -22.1,-29 -22.1,-43.7 0,-19.4 15.6,-35 35,-35 z" />
        </g>
        <g
           id="g63"
           style="display:inline">
          <path
             id="path58"
             class="s4"
             d="M 234.8,709 H 378.1 V 573.1 c 0,-39.4 -32.2,-71.7 -71.6,-71.7 -39.4,0 -71.7,32.3 -71.7,71.7 z"
             style="display:inline" />
          <path
             id="path59"
             class="s5"
             d="m 358,709 h 20.1 V 573.1 c 0,-39.4 -32.2,-71.7 -71.6,-71.7 28.3,0 51.5,32.3 51.5,71.7 z" />
          <path
             id="path60"
             class="s4"
             d="M 378.1,709 H 521.4 V 573.1 c 0,-39.4 -32.2,-71.7 -71.6,-71.7 -39.4,0 -71.7,32.3 -71.7,71.7 z" />
          <path
             id="path61"
             class="s5"
             d="m 501.3,709 h 20.1 V 573.1 c 0,-39.4 -32.2,-71.7 -71.6,-71.7 28.3,0 51.5,32.3 51.5,71.7 z" />
          <path
             id="path62"
             class="s4"
             d="M 521.4,709 H 664.7 V 573.1 c 0,-39.4 -32.2,-71.7 -71.6,-71.7 -39.5,0 -71.7,32.3 -71.7,71.7 z" />
          <path
             id="path63"
             class="s5"
             d="m 644.6,709 h 20.1 V 573.1 c 0,-39.4 -32.2,-71.7 -71.6,-71.7 28.3,0 51.5,32.3 51.5,71.7 z"
             style="display:inline" />
        </g>
      </g>
    </g>
  </g>
  <metadata
     id="metadata1">
    <rdf:RDF>
      <cc:Work
         rdf:about="">
        <dc:title>cinema-audience-pdv</dc:title>
      </cc:Work>
    </rdf:RDF>
  </metadata>
</svg>
