<?xml version="1.0" encoding="UTF-8" standalone="no"?>
<svg
   version="1.2"
   viewBox="0 0 4381.0752 2080.3999"
   width="4381.0752"
   height="2080.3999"
   id="svg45"
   sodipodi:docname="vip-entrance-publicdomainvectors.org.svg"
   inkscape:version="1.4 (86a8ad7, 2024-10-11)"
   xmlns:inkscape="http://www.inkscape.org/namespaces/inkscape"
   xmlns:sodipodi="http://sodipodi.sourceforge.net/DTD/sodipodi-0.dtd"
   xmlns="http://www.w3.org/2000/svg"
   xmlns:svg="http://www.w3.org/2000/svg"
   xmlns:rdf="http://www.w3.org/1999/02/22-rdf-syntax-ns#"
   xmlns:cc="http://creativecommons.org/ns#"
   xmlns:dc="http://purl.org/dc/elements/1.1/">
  <defs
     id="defs45" />
  <sodipodi:namedview
     id="namedview45"
     pagecolor="#ffffff"
     bordercolor="#000000"
     borderopacity="0.25"
     inkscape:showpageshadow="2"
     inkscape:pageopacity="0.0"
     inkscape:pagecheckerboard="0"
     inkscape:deskcolor="#d1d1d1"
     inkscape:zoom="0.10473485"
     inkscape:cx="1861.8445"
     inkscape:cy="195.73237"
     inkscape:window-width="1304"
     inkscape:window-height="745"
     inkscape:window-x="54"
     inkscape:window-y="-8"
     inkscape:window-maximized="1"
     inkscape:current-layer="g86" />
  <title
     id="title1">vip-entrance-publicdomainvectors</title>
  <style
     id="style1">
		.s0 { fill: #332d2a } 
		.s1 { fill: #b24225 } 
		.s2 { fill: #d5cac6 } 
		.s3 { fill: #4d4441 } 
		.s4 { fill: #e19425 } 
		.s5 { fill: #f5a41b } 
		.s6 { fill: #fdcc07 } 
		.s7 { fill: #fcdd2e } 
		.s8 { fill: #fcb911 } 
		.s9 { fill: #d65527 } 
		.s10 { fill: #e96f31 } 
		.s11 { fill: #fefefe } 
	</style>
  <g
     id="_Artboards_"
     transform="translate(1515.8751,761.6)" />
  <g
     id="publicdomainvectors.org"
     transform="translate(1515.8751,761.6)">
    <g
       id="g45">
      <path
         id="&lt;Path&gt;"
         class="s0"
         d="M -1515.8751,1318.8 H 2865.2 V -761.6 h -4381.0751 z"
         style="stroke-width:2.2899" />
      <path
         id="path1"
         class="s1"
         d="m 386.9,509.7 h 546 V 278.6 h -546 z" />
      <path
         id="path2"
         class="s2"
         d="m 648.6,1318.8 h 22.5 V 509.7 h -22.5 z" />
      <path
         id="path3"
         class="s3"
         d="m 646.6,603.7 h 26.6 v -94 h -26.6 z" />
      <g
         id="g44"
         style="display:inline">
        <g
           id="&lt;Group&gt;">
          <path
             id="&lt;Compound Path&gt;"
             fill-rule="evenodd"
             class="s4"
             d="m 176.4,849.8 c 22.1,0 40,17.9 40,40 0,22.1 -17.9,40 -40,40 -22.1,0 -40,-17.9 -40,-40 0,-22.1 17.9,-40 40,-40 z m 112.7,0 c 22.1,0 40,17.9 40,40 0,22.1 -17.9,40 -40,40 -22.1,0 -40,-17.9 -40,-40 0,-22.1 17.9,-40 40,-40 z m 0,15.5 c -13.5,0 -24.5,11 -24.5,24.5 0,13.5 11,24.5 24.5,24.5 13.6,0 24.5,-11 24.5,-24.5 0,-13.5 -10.9,-24.5 -24.5,-24.5 z m -112.7,0 c -13.5,0 -24.5,11 -24.5,24.5 0,13.5 11,24.5 24.5,24.5 13.5,0 24.5,-11 24.5,-24.5 0,-13.5 -11,-24.5 -24.5,-24.5 z" />
          <path
             id="path4"
             class="s5"
             d="m 191.5,719.7 h 82.6 v 599.1 h -82.6 z" />
          <path
             id="path5"
             class="s4"
             d="m 191.5,765.4 c 8.1,14.7 40.3,24.2 61.6,23 v 67.5 l -60.6,15.4 c 14.8,14.1 43.9,17.9 59.7,17.7 v 429.8 h 21.9 V 739.9 Z" />
          <path
             id="path6"
             class="s6"
             d="m 232.8,814.1 c 64.8,0 117.3,13.2 117.3,29.5 0,16.3 -52.5,29.5 -117.3,29.5 -64.8,0 -117.4,-13.2 -117.4,-29.5 0,-16.3 52.6,-29.5 117.4,-29.5 z" />
          <path
             id="path7"
             class="s6"
             d="m 232.8,605.7 c 47,0 85.2,38.1 85.2,85.2 0,47 -38.2,85.2 -85.2,85.2 -47.1,0 -85.2,-38.2 -85.2,-85.2 0,-47.1 38.1,-85.2 85.2,-85.2 z" />
          <path
             id="path8"
             class="s7"
             d="m 226.9,618 c 24.8,3.5 38,25.4 29.5,49 -8.4,23.6 -35.4,40 -60.2,36.5 -24.8,-3.4 -38,-25.3 -29.6,-49 8.5,-23.6 35.5,-39.9 60.3,-36.5 z" />
          <path
             id="path9"
             class="s5"
             d="m 191.5,786.4 h 38.7 c 8,1.7 16,2.4 22.9,2 v 58.5 c -24.5,4.3 -61.6,0.1 -61.6,-12.6 z" />
          <path
             id="path10"
             class="s4"
             d="m 252.2,786.4 h 21.9 v 47.9 c 0,6.4 -9.5,10.7 -21.9,12.7 z" />
          <path
             id="path11"
             class="s8"
             d="m 212.1,911 c 6.5,2.1 11.8,9.7 11.8,16.8 v 362.4 c 0,7.1 -5.3,11.3 -11.8,9.2 -6.5,-2.1 -11.8,-9.7 -11.8,-16.9 V 920.2 c 0,-7.2 5.3,-11.3 11.8,-9.2 z" />
        </g>
        <g
           id="g20">
          <path
             id="path12"
             fill-rule="evenodd"
             class="s4"
             d="m 1040.1,849.8 c 22.1,0 40,17.9 40,40 0,22.1 -17.9,40 -40,40 -22.1,0 -40,-17.9 -40,-40 0,-22.1 17.9,-40 40,-40 z m 112.7,0 c 22.1,0 40,17.9 40,40 0,22.1 -17.9,40 -40,40 -22,0 -39.9,-17.9 -39.9,-40 0,-22.1 17.9,-40 39.9,-40 z m 0,15.5 c -13.5,0 -24.5,11 -24.5,24.5 0,13.5 11,24.5 24.5,24.5 13.6,0 24.5,-11 24.5,-24.5 0,-13.5 -10.9,-24.5 -24.5,-24.5 z m -112.7,0 c -13.5,0 -24.5,11 -24.5,24.5 0,13.5 11,24.5 24.5,24.5 13.5,0 24.5,-11 24.5,-24.5 0,-13.5 -11,-24.5 -24.5,-24.5 z" />
          <path
             id="path13"
             class="s5"
             d="m 1055.2,719.7 h 82.6 v 599.1 h -82.6 z" />
          <path
             id="path14"
             class="s4"
             d="m 1055.2,765.4 c 8.1,14.7 40.3,24.2 61.6,23 v 67.5 l -60.6,15.4 c 14.8,14.1 43.9,17.9 59.7,17.7 v 429.8 h 21.9 V 739.9 Z" />
          <path
             id="path15"
             class="s6"
             d="m 1096.5,814.1 c 64.8,0 117.3,13.2 117.3,29.5 0,16.3 -52.5,29.5 -117.3,29.5 -64.8,0 -117.4,-13.2 -117.4,-29.5 0,-16.3 52.6,-29.5 117.4,-29.5 z" />
          <path
             id="path16"
             class="s6"
             d="m 1096.5,605.7 c 47,0 85.2,38.1 85.2,85.2 0,47 -38.2,85.2 -85.2,85.2 -47.1,0 -85.2,-38.2 -85.2,-85.2 0,-47.1 38.1,-85.2 85.2,-85.2 z" />
          <path
             id="path17"
             class="s7"
             d="m 1090.6,618 c 24.8,3.5 38,25.4 29.5,49 -8.4,23.6 -35.4,40 -60.2,36.5 -24.8,-3.4 -38,-25.3 -29.6,-49 8.5,-23.6 35.5,-39.9 60.3,-36.5 z" />
          <path
             id="path18"
             class="s5"
             d="m 1055.2,786.4 h 38.8 c 7.9,1.7 15.9,2.4 22.8,2 v 58.5 c -24.5,4.3 -61.6,0.1 -61.6,-12.6 z" />
          <path
             id="path19"
             class="s4"
             d="m 1115.9,786.4 h 21.9 v 47.9 c 0,6.4 -9.5,10.7 -21.9,12.7 z" />
          <path
             id="path20"
             class="s8"
             d="m 1075.8,911 c 6.5,2.1 11.8,9.7 11.8,16.8 v 362.4 c 0,7.1 -5.3,11.3 -11.8,9.2 -6.4,-2.1 -11.8,-9.7 -11.8,-16.9 V 920.2 c 0,-7.2 5.4,-11.3 11.8,-9.2 z" />
        </g>
        <g
           id="g25"
           style="display:none">
          <path
             id="path21"
             class="s9"
             d="m 0.7,978.6 c 24.8,-6.7 48.5,-14.5 70.8,-23.2 13.6,13.5 3.6,6.6 17.1,20.2 -27,22.7 -56.7,41.9 -87.9,57.5 z" />
          <path
             id="path22"
             fill-rule="evenodd"
             class="s1"
             d="m 0.7,1028.3 c 31,-16.3 60.6,-36.7 89.2,-61.8 l 5.3,5.2 C 67.3,998.2 35.4,1019.6 0.7,1036 Z m 89.2,-61.8 c -25.7,15.4 -51.3,26.6 -76.7,35.2 24.4,-11.2 48,-24.6 70.3,-41.6 z m -6.3,-6.4 C 57.7,974.6 29.7,984.5 0.7,992.3 v -4.5 c 26.7,-9 52.3,-20 75.6,-35 z" />
          <path
             id="path23"
             class="s5"
             d="m 170.4,895.9 c -3.2,-3.1 -8.4,-3.1 -11.6,0.1 l -36.2,37 11.7,11.5 36.2,-37 c 3.2,-3.2 3.1,-8.4 -0.1,-11.6 z" />
          <path
             id="path24"
             class="s6"
             d="m 112.1,914.7 c 22.5,0 40.7,18.2 40.7,40.7 0,22.4 -18.2,40.6 -40.7,40.6 -22.4,0 -40.6,-18.2 -40.6,-40.6 0,-22.5 18.2,-40.7 40.6,-40.7 z" />
          <path
             id="path25"
             class="s7"
             d="m 106.9,922 c 11.8,0 18.6,9.5 15.3,21.3 -3.3,11.7 -15.6,21.3 -27.3,21.3 -11.8,0 -18.7,-9.6 -15.3,-21.3 3.3,-11.8 15.5,-21.3 27.3,-21.3 z" />
        </g>
        <g
           id="g38">
          <g
             id="g35">
            <path
               id="path26"
               class="s9"
               d="m 393.8,955.4 c 165,74.6 387.3,60.3 541.1,0 13.6,13.5 3.6,6.6 17.2,20.2 -167.6,141.1 -433.4,144.1 -581.6,3 13.6,-13.5 9.8,-9.7 23.3,-23.2 z" />
            <path
               id="path27"
               fill-rule="evenodd"
               class="s1"
               d="m 607,1080.9 c -89,-8.3 -173.4,-42.2 -236.5,-102.3 l 5.3,-5.2 c 68.9,60.4 142.8,93.6 231.2,107.5 z M 382.2,967 c 22.3,17 45.9,30.4 70.3,41.6 -25.4,-8.6 -51,-19.8 -76.7,-35.2 z m 7.3,-7.4 c 42.6,27.5 92.8,41.2 143.3,54.6 C 480.2,1003.8 428,992.5 382.2,967 Z" />
            <path
               id="path28"
               fill-rule="evenodd"
               class="s1"
               d="m 953.3,966.5 5.3,5.2 c -63,60.1 -147.4,94 -236.4,102.3 88.3,-14 162.3,-47.1 231.1,-107.5 z m 0,0 c -25.7,15.4 -51.2,26.6 -76.6,35.2 24.4,-11.2 48,-24.6 70.3,-41.6 z m -6.4,-6.4 C 901.2,985.6 849,997 796.4,1007.4 846.8,994 897.1,980.3 939.6,952.8 Z" />
            <path
               id="path29"
               class="s5"
               d="m 1033.8,895.9 c -3.2,-3.1 -8.4,-3.1 -11.6,0.1 l -36.2,37 11.7,11.5 36.2,-37 c 3.2,-3.2 3.1,-8.4 -0.1,-11.6 z" />
            <path
               id="path30"
               class="s6"
               d="m 975.6,914.7 c 22.4,0 40.6,18.2 40.6,40.7 0,22.4 -18.2,40.6 -40.6,40.6 -22.5,0 -40.7,-18.2 -40.7,-40.6 0,-22.5 18.2,-40.7 40.7,-40.7 z" />
            <path
               id="path31"
               class="s7"
               d="m 970.3,922 c 11.8,0 18.6,9.5 15.3,21.3 -3.3,11.7 -15.5,21.3 -27.3,21.3 -11.8,0 -18.6,-9.6 -15.3,-21.3 3.3,-11.8 15.6,-21.3 27.3,-21.3 z" />
            <path
               id="path32"
               class="s1"
               d="m 500.3,1041.7 c 98.6,45.8 216.5,37.4 319.6,0 -106,22.6 -206.9,29.6 -319.6,0 z" />
            <path
               id="path33"
               class="s1"
               d="m 540,1017.7 c 77.3,31.4 169.7,25.7 250.5,0 -83,15.5 -162.2,20.3 -250.5,0 z" />
            <path
               id="path34"
               class="s10"
               d="m 526.9,1035.2 c 72.3,30.2 158.6,25.9 234.2,2.9 -77.6,13.5 -151.6,17.1 -234.2,-2.9 z" />
            <path
               id="path35"
               class="s10"
               d="m 586,1009.2 c 50.8,20.7 111.5,16.9 164.6,0 -54.6,10.2 -106.6,13.4 -164.6,0 z" />
          </g>
          <path
             id="path36"
             class="s5"
             d="m 294.9,895.9 c 3.2,-3.1 8.4,-3.1 11.6,0.1 l 36.2,37 -11.7,11.5 -36.2,-37 c -3.2,-3.2 -3.1,-8.4 0.1,-11.6 z" />
          <path
             id="path37"
             class="s6"
             d="m 353.2,914.7 c 22.4,0 40.6,18.2 40.6,40.7 0,22.4 -18.2,40.6 -40.6,40.6 -22.5,0 -40.7,-18.2 -40.7,-40.6 0,-22.5 18.2,-40.7 40.7,-40.7 z" />
          <path
             id="path38"
             class="s7"
             d="m 347.9,922 c 11.8,0 18.6,9.5 15.3,21.3 -3.3,11.7 -15.6,21.3 -27.3,21.3 -11.8,0 -18.6,-9.6 -15.3,-21.3 3.3,-11.8 15.6,-21.3 27.3,-21.3 z" />
        </g>
        <g
           id="g43"
           style="display:none">
          <g
             id="g40">
            <path
               id="path39"
               class="s9"
               d="m 1255,955.4 c 20.6,9.3 42,17.2 64.1,23.8 v 60.2 c -32,-15.9 -61.5,-36.1 -87.4,-60.8 13.6,-13.5 9.8,-9.7 23.3,-23.2 z" />
            <path
               id="path40"
               fill-rule="evenodd"
               class="s1"
               d="m 1319.1,1039.4 c -32,-15.8 -61.5,-36.1 -87.4,-60.8 l 5.3,-5.2 c 26.4,23.2 53.6,42.3 82.1,58 z m -75.7,-72.5 c 22.3,17 45.9,30.4 70.3,41.6 -25.4,-8.6 -50.9,-19.8 -76.7,-35.2 z m 7.3,-7.3 c 21.2,13.6 44.3,23.9 68.4,32.4 v 5 c -26.4,-7.4 -51.9,-16.9 -75.7,-30.1 z" />
          </g>
          <path
             id="path41"
             class="s5"
             d="m 1156.1,895.9 c 3.2,-3.1 8.5,-3.1 11.6,0.1 l 36.2,37 -11.7,11.5 -36.2,-37 c -3.2,-3.2 -3.1,-8.4 0.1,-11.6 z" />
          <path
             id="path42"
             class="s6"
             d="m 1214.4,914.7 c 22.4,0 40.6,18.2 40.6,40.7 0,22.4 -18.2,40.6 -40.6,40.6 -22.5,0 -40.7,-18.2 -40.7,-40.6 0,-22.5 18.2,-40.7 40.7,-40.7 z" />
          <path
             id="path43"
             class="s7"
             d="m 1209.1,922 c 11.8,0 18.6,9.5 15.3,21.3 -3.3,11.7 -15.6,21.3 -27.3,21.3 -11.8,0 -18.6,-9.6 -15.3,-21.3 3.3,-11.8 15.6,-21.3 27.3,-21.3 z" />
        </g>
      </g>
      <path
         id="path44"
         fill-rule="evenodd"
         class="s11"
         d="m 601.6,367.5 h 12.8 l 6.4,24.8 c 1.6,5.8 2.7,11.2 4.3,17.1 h 0.3 c 1.6,-5.9 2.7,-11.3 4.3,-17.1 l 6.3,-24.8 h 12.3 l -16.1,53.3 h -14.5 z m 52.4,0 h 12 v 53.3 h -12 z m 24.6,0 h 18.3 c 11.7,0 21.2,4.3 21.2,17.2 0,12.5 -9.5,18.1 -20.8,18.1 h -6.7 v 18.1 h -12 z m 17.9,25.7 c 6.7,0 9.8,-3 9.8,-8.6 0,-5.5 -3.6,-7.6 -10.1,-7.6 h -5.6 v 16.2 z" />
      <g
         id="g86"
         style="display:inline"
         transform="translate(863.7)">
        <g
           id="g53">
          <path
             id="path45"
             fill-rule="evenodd"
             class="s4"
             d="m 176.4,849.8 c 22.1,0 40,17.9 40,40 0,22.1 -17.9,40 -40,40 -22.1,0 -40,-17.9 -40,-40 0,-22.1 17.9,-40 40,-40 z m 112.7,0 c 22.1,0 40,17.9 40,40 0,22.1 -17.9,40 -40,40 -22.1,0 -40,-17.9 -40,-40 0,-22.1 17.9,-40 40,-40 z m 0,15.5 c -13.5,0 -24.5,11 -24.5,24.5 0,13.5 11,24.5 24.5,24.5 13.6,0 24.5,-11 24.5,-24.5 0,-13.5 -10.9,-24.5 -24.5,-24.5 z m -112.7,0 c -13.5,0 -24.5,11 -24.5,24.5 0,13.5 11,24.5 24.5,24.5 13.5,0 24.5,-11 24.5,-24.5 0,-13.5 -11,-24.5 -24.5,-24.5 z" />
          <path
             id="path46"
             class="s5"
             d="m 191.5,719.7 h 82.6 v 599.1 h -82.6 z" />
          <path
             id="path47"
             class="s4"
             d="m 191.5,765.4 c 8.1,14.7 40.3,24.2 61.6,23 v 67.5 l -60.6,15.4 c 14.8,14.1 43.9,17.9 59.7,17.7 v 429.8 h 21.9 V 739.9 Z" />
          <path
             id="path48"
             class="s6"
             d="m 232.8,814.1 c 64.8,0 117.3,13.2 117.3,29.5 0,16.3 -52.5,29.5 -117.3,29.5 -64.8,0 -117.4,-13.2 -117.4,-29.5 0,-16.3 52.6,-29.5 117.4,-29.5 z" />
          <path
             id="path49"
             class="s6"
             d="m 232.8,605.7 c 47,0 85.2,38.1 85.2,85.2 0,47 -38.2,85.2 -85.2,85.2 -47.1,0 -85.2,-38.2 -85.2,-85.2 0,-47.1 38.1,-85.2 85.2,-85.2 z" />
          <path
             id="path50"
             class="s7"
             d="m 226.9,618 c 24.8,3.5 38,25.4 29.5,49 -8.4,23.6 -35.4,40 -60.2,36.5 -24.8,-3.4 -38,-25.3 -29.6,-49 8.5,-23.6 35.5,-39.9 60.3,-36.5 z" />
          <path
             id="path51"
             class="s5"
             d="m 191.5,786.4 h 38.7 c 8,1.7 16,2.4 22.9,2 v 58.5 c -24.5,4.3 -61.6,0.1 -61.6,-12.6 z" />
          <path
             id="path52"
             class="s4"
             d="m 252.2,786.4 h 21.9 v 47.9 c 0,6.4 -9.5,10.7 -21.9,12.7 z" />
          <path
             id="path53"
             class="s8"
             d="m 212.1,911 c 6.5,2.1 11.8,9.7 11.8,16.8 v 362.4 c 0,7.1 -5.3,11.3 -11.8,9.2 -6.5,-2.1 -11.8,-9.7 -11.8,-16.9 V 920.2 c 0,-7.2 5.3,-11.3 11.8,-9.2 z" />
        </g>
        <g
           id="g80"
           style="display:inline">
          <g
             id="g77">
            <path
               id="path68"
               class="s9"
               d="m 393.8,955.4 c 165,74.6 387.3,60.3 541.1,0 13.6,13.5 3.6,6.6 17.2,20.2 -167.6,141.1 -433.4,144.1 -581.6,3 13.6,-13.5 9.8,-9.7 23.3,-23.2 z" />
            <path
               id="path69"
               fill-rule="evenodd"
               class="s1"
               d="m 607,1080.9 c -89,-8.3 -173.4,-42.2 -236.5,-102.3 l 5.3,-5.2 c 68.9,60.4 142.8,93.6 231.2,107.5 z M 382.2,967 c 22.3,17 45.9,30.4 70.3,41.6 -25.4,-8.6 -51,-19.8 -76.7,-35.2 z m 7.3,-7.4 c 42.6,27.5 92.8,41.2 143.3,54.6 C 480.2,1003.8 428,992.5 382.2,967 Z" />
            <path
               id="path70"
               fill-rule="evenodd"
               class="s1"
               d="m 953.3,966.5 5.3,5.2 c -63,60.1 -147.4,94 -236.4,102.3 88.3,-14 162.3,-47.1 231.1,-107.5 z m 0,0 c -25.7,15.4 -51.2,26.6 -76.6,35.2 24.4,-11.2 48,-24.6 70.3,-41.6 z m -6.4,-6.4 C 901.2,985.6 849,997 796.4,1007.4 846.8,994 897.1,980.3 939.6,952.8 Z" />
            <path
               id="path71"
               class="s5"
               d="m 1033.8,895.9 c -3.2,-3.1 -8.4,-3.1 -11.6,0.1 l -36.2,37 11.7,11.5 36.2,-37 c 3.2,-3.2 3.1,-8.4 -0.1,-11.6 z" />
            <path
               id="path72"
               class="s6"
               d="m 975.6,914.7 c 22.4,0 40.6,18.2 40.6,40.7 0,22.4 -18.2,40.6 -40.6,40.6 -22.5,0 -40.7,-18.2 -40.7,-40.6 0,-22.5 18.2,-40.7 40.7,-40.7 z" />
            <path
               id="path73"
               class="s7"
               d="m 970.3,922 c 11.8,0 18.6,9.5 15.3,21.3 -3.3,11.7 -15.5,21.3 -27.3,21.3 -11.8,0 -18.6,-9.6 -15.3,-21.3 3.3,-11.8 15.6,-21.3 27.3,-21.3 z" />
            <path
               id="path74"
               class="s1"
               d="m 500.3,1041.7 c 98.6,45.8 216.5,37.4 319.6,0 -106,22.6 -206.9,29.6 -319.6,0 z" />
            <path
               id="path75"
               class="s1"
               d="m 540,1017.7 c 77.3,31.4 169.7,25.7 250.5,0 -83,15.5 -162.2,20.3 -250.5,0 z" />
            <path
               id="path76"
               class="s10"
               d="m 526.9,1035.2 c 72.3,30.2 158.6,25.9 234.2,2.9 -77.6,13.5 -151.6,17.1 -234.2,-2.9 z" />
            <path
               id="path77"
               class="s10"
               d="m 586,1009.2 c 50.8,20.7 111.5,16.9 164.6,0 -54.6,10.2 -106.6,13.4 -164.6,0 z" />
          </g>
          <path
             id="path78"
             class="s5"
             d="m 294.9,895.9 c 3.2,-3.1 8.4,-3.1 11.6,0.1 l 36.2,37 -11.7,11.5 -36.2,-37 c -3.2,-3.2 -3.1,-8.4 0.1,-11.6 z" />
          <path
             id="path79"
             class="s6"
             d="m 353.2,914.7 c 22.4,0 40.6,18.2 40.6,40.7 0,22.4 -18.2,40.6 -40.6,40.6 -22.5,0 -40.7,-18.2 -40.7,-40.6 0,-22.5 18.2,-40.7 40.7,-40.7 z" />
          <path
             id="path80"
             class="s7"
             d="m 347.9,922 c 11.8,0 18.6,9.5 15.3,21.3 -3.3,11.7 -15.6,21.3 -27.3,21.3 -11.8,0 -18.6,-9.6 -15.3,-21.3 3.3,-11.8 15.6,-21.3 27.3,-21.3 z" />
        </g>
      </g>
      <g
         id="g127"
         style="display:inline"
         transform="translate(-863.7)">
        <g
           id="g94"
           style="display:inline">
          <path
             id="path86"
             fill-rule="evenodd"
             class="s4"
             d="m 176.4,849.8 c 22.1,0 40,17.9 40,40 0,22.1 -17.9,40 -40,40 -22.1,0 -40,-17.9 -40,-40 0,-22.1 17.9,-40 40,-40 z m 112.7,0 c 22.1,0 40,17.9 40,40 0,22.1 -17.9,40 -40,40 -22.1,0 -40,-17.9 -40,-40 0,-22.1 17.9,-40 40,-40 z m 0,15.5 c -13.5,0 -24.5,11 -24.5,24.5 0,13.5 11,24.5 24.5,24.5 13.6,0 24.5,-11 24.5,-24.5 0,-13.5 -10.9,-24.5 -24.5,-24.5 z m -112.7,0 c -13.5,0 -24.5,11 -24.5,24.5 0,13.5 11,24.5 24.5,24.5 13.5,0 24.5,-11 24.5,-24.5 0,-13.5 -11,-24.5 -24.5,-24.5 z" />
          <path
             id="path87"
             class="s5"
             d="m 191.5,719.7 h 82.6 v 599.1 h -82.6 z" />
          <path
             id="path88"
             class="s4"
             d="m 191.5,765.4 c 8.1,14.7 40.3,24.2 61.6,23 v 67.5 l -60.6,15.4 c 14.8,14.1 43.9,17.9 59.7,17.7 v 429.8 h 21.9 V 739.9 Z" />
          <path
             id="path89"
             class="s6"
             d="m 232.8,814.1 c 64.8,0 117.3,13.2 117.3,29.5 0,16.3 -52.5,29.5 -117.3,29.5 -64.8,0 -117.4,-13.2 -117.4,-29.5 0,-16.3 52.6,-29.5 117.4,-29.5 z" />
          <path
             id="path90"
             class="s6"
             d="m 232.8,605.7 c 47,0 85.2,38.1 85.2,85.2 0,47 -38.2,85.2 -85.2,85.2 -47.1,0 -85.2,-38.2 -85.2,-85.2 0,-47.1 38.1,-85.2 85.2,-85.2 z" />
          <path
             id="path91"
             class="s7"
             d="m 226.9,618 c 24.8,3.5 38,25.4 29.5,49 -8.4,23.6 -35.4,40 -60.2,36.5 -24.8,-3.4 -38,-25.3 -29.6,-49 8.5,-23.6 35.5,-39.9 60.3,-36.5 z" />
          <path
             id="path92"
             class="s5"
             d="m 191.5,786.4 h 38.7 c 8,1.7 16,2.4 22.9,2 v 58.5 c -24.5,4.3 -61.6,0.1 -61.6,-12.6 z" />
          <path
             id="path93"
             class="s4"
             d="m 252.2,786.4 h 21.9 v 47.9 c 0,6.4 -9.5,10.7 -21.9,12.7 z" />
          <path
             id="path94"
             class="s8"
             d="m 212.1,911 c 6.5,2.1 11.8,9.7 11.8,16.8 v 362.4 c 0,7.1 -5.3,11.3 -11.8,9.2 -6.5,-2.1 -11.8,-9.7 -11.8,-16.9 V 920.2 c 0,-7.2 5.3,-11.3 11.8,-9.2 z" />
        </g>
        <g
           id="g121"
           style="display:inline">
          <g
             id="g118">
            <path
               id="path109"
               class="s9"
               d="m 393.8,955.4 c 165,74.6 387.3,60.3 541.1,0 13.6,13.5 3.6,6.6 17.2,20.2 -167.6,141.1 -433.4,144.1 -581.6,3 13.6,-13.5 9.8,-9.7 23.3,-23.2 z" />
            <path
               id="path110"
               fill-rule="evenodd"
               class="s1"
               d="m 607,1080.9 c -89,-8.3 -173.4,-42.2 -236.5,-102.3 l 5.3,-5.2 c 68.9,60.4 142.8,93.6 231.2,107.5 z M 382.2,967 c 22.3,17 45.9,30.4 70.3,41.6 -25.4,-8.6 -51,-19.8 -76.7,-35.2 z m 7.3,-7.4 c 42.6,27.5 92.8,41.2 143.3,54.6 C 480.2,1003.8 428,992.5 382.2,967 Z" />
            <path
               id="path111"
               fill-rule="evenodd"
               class="s1"
               d="m 953.3,966.5 5.3,5.2 c -63,60.1 -147.4,94 -236.4,102.3 88.3,-14 162.3,-47.1 231.1,-107.5 z m 0,0 c -25.7,15.4 -51.2,26.6 -76.6,35.2 24.4,-11.2 48,-24.6 70.3,-41.6 z m -6.4,-6.4 C 901.2,985.6 849,997 796.4,1007.4 846.8,994 897.1,980.3 939.6,952.8 Z" />
            <path
               id="path112"
               class="s5"
               d="m 1033.8,895.9 c -3.2,-3.1 -8.4,-3.1 -11.6,0.1 l -36.2,37 11.7,11.5 36.2,-37 c 3.2,-3.2 3.1,-8.4 -0.1,-11.6 z" />
            <path
               id="path113"
               class="s6"
               d="m 975.6,914.7 c 22.4,0 40.6,18.2 40.6,40.7 0,22.4 -18.2,40.6 -40.6,40.6 -22.5,0 -40.7,-18.2 -40.7,-40.6 0,-22.5 18.2,-40.7 40.7,-40.7 z" />
            <path
               id="path114"
               class="s7"
               d="m 970.3,922 c 11.8,0 18.6,9.5 15.3,21.3 -3.3,11.7 -15.5,21.3 -27.3,21.3 -11.8,0 -18.6,-9.6 -15.3,-21.3 3.3,-11.8 15.6,-21.3 27.3,-21.3 z" />
            <path
               id="path115"
               class="s1"
               d="m 500.3,1041.7 c 98.6,45.8 216.5,37.4 319.6,0 -106,22.6 -206.9,29.6 -319.6,0 z" />
            <path
               id="path116"
               class="s1"
               d="m 540,1017.7 c 77.3,31.4 169.7,25.7 250.5,0 -83,15.5 -162.2,20.3 -250.5,0 z" />
            <path
               id="path117"
               class="s10"
               d="m 526.9,1035.2 c 72.3,30.2 158.6,25.9 234.2,2.9 -77.6,13.5 -151.6,17.1 -234.2,-2.9 z" />
            <path
               id="path118"
               class="s10"
               d="m 586,1009.2 c 50.8,20.7 111.5,16.9 164.6,0 -54.6,10.2 -106.6,13.4 -164.6,0 z" />
          </g>
          <path
             id="path119"
             class="s5"
             d="m 294.9,895.9 c 3.2,-3.1 8.4,-3.1 11.6,0.1 l 36.2,37 -11.7,11.5 -36.2,-37 c -3.2,-3.2 -3.1,-8.4 0.1,-11.6 z" />
          <path
             id="path120"
             class="s6"
             d="m 353.2,914.7 c 22.4,0 40.6,18.2 40.6,40.7 0,22.4 -18.2,40.6 -40.6,40.6 -22.5,0 -40.7,-18.2 -40.7,-40.6 0,-22.5 18.2,-40.7 40.7,-40.7 z" />
          <path
             id="path121"
             class="s7"
             d="m 347.9,922 c 11.8,0 18.6,9.5 15.3,21.3 -3.3,11.7 -15.6,21.3 -27.3,21.3 -11.8,0 -18.6,-9.6 -15.3,-21.3 3.3,-11.8 15.6,-21.3 27.3,-21.3 z" />
        </g>
      </g>
      <g
         id="g168"
         style="display:inline"
         transform="translate(-1727.4)">
        <g
           id="g135"
           style="display:inline">
          <path
             id="path127"
             fill-rule="evenodd"
             class="s4"
             d="m 176.4,849.8 c 22.1,0 40,17.9 40,40 0,22.1 -17.9,40 -40,40 -22.1,0 -40,-17.9 -40,-40 0,-22.1 17.9,-40 40,-40 z m 112.7,0 c 22.1,0 40,17.9 40,40 0,22.1 -17.9,40 -40,40 -22.1,0 -40,-17.9 -40,-40 0,-22.1 17.9,-40 40,-40 z m 0,15.5 c -13.5,0 -24.5,11 -24.5,24.5 0,13.5 11,24.5 24.5,24.5 13.6,0 24.5,-11 24.5,-24.5 0,-13.5 -10.9,-24.5 -24.5,-24.5 z m -112.7,0 c -13.5,0 -24.5,11 -24.5,24.5 0,13.5 11,24.5 24.5,24.5 13.5,0 24.5,-11 24.5,-24.5 0,-13.5 -11,-24.5 -24.5,-24.5 z" />
          <path
             id="path128"
             class="s5"
             d="m 191.5,719.7 h 82.6 v 599.1 h -82.6 z" />
          <path
             id="path129"
             class="s4"
             d="m 191.5,765.4 c 8.1,14.7 40.3,24.2 61.6,23 v 67.5 l -60.6,15.4 c 14.8,14.1 43.9,17.9 59.7,17.7 v 429.8 h 21.9 V 739.9 Z" />
          <path
             id="path130"
             class="s6"
             d="m 232.8,814.1 c 64.8,0 117.3,13.2 117.3,29.5 0,16.3 -52.5,29.5 -117.3,29.5 -64.8,0 -117.4,-13.2 -117.4,-29.5 0,-16.3 52.6,-29.5 117.4,-29.5 z" />
          <path
             id="path131"
             class="s6"
             d="m 232.8,605.7 c 47,0 85.2,38.1 85.2,85.2 0,47 -38.2,85.2 -85.2,85.2 -47.1,0 -85.2,-38.2 -85.2,-85.2 0,-47.1 38.1,-85.2 85.2,-85.2 z" />
          <path
             id="path132"
             class="s7"
             d="m 226.9,618 c 24.8,3.5 38,25.4 29.5,49 -8.4,23.6 -35.4,40 -60.2,36.5 -24.8,-3.4 -38,-25.3 -29.6,-49 8.5,-23.6 35.5,-39.9 60.3,-36.5 z" />
          <path
             id="path133"
             class="s5"
             d="m 191.5,786.4 h 38.7 c 8,1.7 16,2.4 22.9,2 v 58.5 c -24.5,4.3 -61.6,0.1 -61.6,-12.6 z" />
          <path
             id="path134"
             class="s4"
             d="m 252.2,786.4 h 21.9 v 47.9 c 0,6.4 -9.5,10.7 -21.9,12.7 z" />
          <path
             id="path135"
             class="s8"
             d="m 212.1,911 c 6.5,2.1 11.8,9.7 11.8,16.8 v 362.4 c 0,7.1 -5.3,11.3 -11.8,9.2 -6.5,-2.1 -11.8,-9.7 -11.8,-16.9 V 920.2 c 0,-7.2 5.3,-11.3 11.8,-9.2 z" />
        </g>
        <g
           id="g162"
           style="display:inline">
          <g
             id="g159">
            <path
               id="path150"
               class="s9"
               d="m 393.8,955.4 c 165,74.6 387.3,60.3 541.1,0 13.6,13.5 3.6,6.6 17.2,20.2 -167.6,141.1 -433.4,144.1 -581.6,3 13.6,-13.5 9.8,-9.7 23.3,-23.2 z" />
            <path
               id="path151"
               fill-rule="evenodd"
               class="s1"
               d="m 607,1080.9 c -89,-8.3 -173.4,-42.2 -236.5,-102.3 l 5.3,-5.2 c 68.9,60.4 142.8,93.6 231.2,107.5 z M 382.2,967 c 22.3,17 45.9,30.4 70.3,41.6 -25.4,-8.6 -51,-19.8 -76.7,-35.2 z m 7.3,-7.4 c 42.6,27.5 92.8,41.2 143.3,54.6 C 480.2,1003.8 428,992.5 382.2,967 Z" />
            <path
               id="path152"
               fill-rule="evenodd"
               class="s1"
               d="m 953.3,966.5 5.3,5.2 c -63,60.1 -147.4,94 -236.4,102.3 88.3,-14 162.3,-47.1 231.1,-107.5 z m 0,0 c -25.7,15.4 -51.2,26.6 -76.6,35.2 24.4,-11.2 48,-24.6 70.3,-41.6 z m -6.4,-6.4 C 901.2,985.6 849,997 796.4,1007.4 846.8,994 897.1,980.3 939.6,952.8 Z" />
            <path
               id="path153"
               class="s5"
               d="m 1033.8,895.9 c -3.2,-3.1 -8.4,-3.1 -11.6,0.1 l -36.2,37 11.7,11.5 36.2,-37 c 3.2,-3.2 3.1,-8.4 -0.1,-11.6 z" />
            <path
               id="path154"
               class="s6"
               d="m 975.6,914.7 c 22.4,0 40.6,18.2 40.6,40.7 0,22.4 -18.2,40.6 -40.6,40.6 -22.5,0 -40.7,-18.2 -40.7,-40.6 0,-22.5 18.2,-40.7 40.7,-40.7 z" />
            <path
               id="path155"
               class="s7"
               d="m 970.3,922 c 11.8,0 18.6,9.5 15.3,21.3 -3.3,11.7 -15.5,21.3 -27.3,21.3 -11.8,0 -18.6,-9.6 -15.3,-21.3 3.3,-11.8 15.6,-21.3 27.3,-21.3 z" />
            <path
               id="path156"
               class="s1"
               d="m 500.3,1041.7 c 98.6,45.8 216.5,37.4 319.6,0 -106,22.6 -206.9,29.6 -319.6,0 z" />
            <path
               id="path157"
               class="s1"
               d="m 540,1017.7 c 77.3,31.4 169.7,25.7 250.5,0 -83,15.5 -162.2,20.3 -250.5,0 z" />
            <path
               id="path158"
               class="s10"
               d="m 526.9,1035.2 c 72.3,30.2 158.6,25.9 234.2,2.9 -77.6,13.5 -151.6,17.1 -234.2,-2.9 z" />
            <path
               id="path159"
               class="s10"
               d="m 586,1009.2 c 50.8,20.7 111.5,16.9 164.6,0 -54.6,10.2 -106.6,13.4 -164.6,0 z" />
          </g>
          <path
             id="path160"
             class="s5"
             d="m 294.9,895.9 c 3.2,-3.1 8.4,-3.1 11.6,0.1 l 36.2,37 -11.7,11.5 -36.2,-37 c -3.2,-3.2 -3.1,-8.4 0.1,-11.6 z" />
          <path
             id="path161"
             class="s6"
             d="m 353.2,914.7 c 22.4,0 40.6,18.2 40.6,40.7 0,22.4 -18.2,40.6 -40.6,40.6 -22.5,0 -40.7,-18.2 -40.7,-40.6 0,-22.5 18.2,-40.7 40.7,-40.7 z" />
          <path
             id="path162"
             class="s7"
             d="m 347.9,922 c 11.8,0 18.6,9.5 15.3,21.3 -3.3,11.7 -15.6,21.3 -27.3,21.3 -11.8,0 -18.6,-9.6 -15.3,-21.3 3.3,-11.8 15.6,-21.3 27.3,-21.3 z" />
        </g>
      </g>
      <g
         id="g209"
         style="display:inline"
         transform="translate(1727.4)">
        <g
           id="g176"
           style="display:inline">
          <path
             id="path168"
             fill-rule="evenodd"
             class="s4"
             d="m 176.4,849.8 c 22.1,0 40,17.9 40,40 0,22.1 -17.9,40 -40,40 -22.1,0 -40,-17.9 -40,-40 0,-22.1 17.9,-40 40,-40 z m 112.7,0 c 22.1,0 40,17.9 40,40 0,22.1 -17.9,40 -40,40 -22.1,0 -40,-17.9 -40,-40 0,-22.1 17.9,-40 40,-40 z m 0,15.5 c -13.5,0 -24.5,11 -24.5,24.5 0,13.5 11,24.5 24.5,24.5 13.6,0 24.5,-11 24.5,-24.5 0,-13.5 -10.9,-24.5 -24.5,-24.5 z m -112.7,0 c -13.5,0 -24.5,11 -24.5,24.5 0,13.5 11,24.5 24.5,24.5 13.5,0 24.5,-11 24.5,-24.5 0,-13.5 -11,-24.5 -24.5,-24.5 z" />
          <path
             id="path169"
             class="s5"
             d="m 191.5,719.7 h 82.6 v 599.1 h -82.6 z" />
          <path
             id="path170"
             class="s4"
             d="m 191.5,765.4 c 8.1,14.7 40.3,24.2 61.6,23 v 67.5 l -60.6,15.4 c 14.8,14.1 43.9,17.9 59.7,17.7 v 429.8 h 21.9 V 739.9 Z" />
          <path
             id="path171"
             class="s6"
             d="m 232.8,814.1 c 64.8,0 117.3,13.2 117.3,29.5 0,16.3 -52.5,29.5 -117.3,29.5 -64.8,0 -117.4,-13.2 -117.4,-29.5 0,-16.3 52.6,-29.5 117.4,-29.5 z" />
          <path
             id="path172"
             class="s6"
             d="m 232.8,605.7 c 47,0 85.2,38.1 85.2,85.2 0,47 -38.2,85.2 -85.2,85.2 -47.1,0 -85.2,-38.2 -85.2,-85.2 0,-47.1 38.1,-85.2 85.2,-85.2 z" />
          <path
             id="path173"
             class="s7"
             d="m 226.9,618 c 24.8,3.5 38,25.4 29.5,49 -8.4,23.6 -35.4,40 -60.2,36.5 -24.8,-3.4 -38,-25.3 -29.6,-49 8.5,-23.6 35.5,-39.9 60.3,-36.5 z" />
          <path
             id="path174"
             class="s5"
             d="m 191.5,786.4 h 38.7 c 8,1.7 16,2.4 22.9,2 v 58.5 c -24.5,4.3 -61.6,0.1 -61.6,-12.6 z" />
          <path
             id="path175"
             class="s4"
             d="m 252.2,786.4 h 21.9 v 47.9 c 0,6.4 -9.5,10.7 -21.9,12.7 z" />
          <path
             id="path176"
             class="s8"
             d="m 212.1,911 c 6.5,2.1 11.8,9.7 11.8,16.8 v 362.4 c 0,7.1 -5.3,11.3 -11.8,9.2 -6.5,-2.1 -11.8,-9.7 -11.8,-16.9 V 920.2 c 0,-7.2 5.3,-11.3 11.8,-9.2 z" />
        </g>
        <g
           id="g185"
           style="display:inline">
          <path
             id="path177"
             fill-rule="evenodd"
             class="s4"
             d="m 1040.1,849.8 c 22.1,0 40,17.9 40,40 0,22.1 -17.9,40 -40,40 -22.1,0 -40,-17.9 -40,-40 0,-22.1 17.9,-40 40,-40 z m 112.7,0 c 22.1,0 40,17.9 40,40 0,22.1 -17.9,40 -40,40 -22,0 -39.9,-17.9 -39.9,-40 0,-22.1 17.9,-40 39.9,-40 z m 0,15.5 c -13.5,0 -24.5,11 -24.5,24.5 0,13.5 11,24.5 24.5,24.5 13.6,0 24.5,-11 24.5,-24.5 0,-13.5 -10.9,-24.5 -24.5,-24.5 z m -112.7,0 c -13.5,0 -24.5,11 -24.5,24.5 0,13.5 11,24.5 24.5,24.5 13.5,0 24.5,-11 24.5,-24.5 0,-13.5 -11,-24.5 -24.5,-24.5 z" />
          <path
             id="path178"
             class="s5"
             d="m 1055.2,719.7 h 82.6 v 599.1 h -82.6 z" />
          <path
             id="path179"
             class="s4"
             d="m 1055.2,765.4 c 8.1,14.7 40.3,24.2 61.6,23 v 67.5 l -60.6,15.4 c 14.8,14.1 43.9,17.9 59.7,17.7 v 429.8 h 21.9 V 739.9 Z" />
          <path
             id="path180"
             class="s6"
             d="m 1096.5,814.1 c 64.8,0 117.3,13.2 117.3,29.5 0,16.3 -52.5,29.5 -117.3,29.5 -64.8,0 -117.4,-13.2 -117.4,-29.5 0,-16.3 52.6,-29.5 117.4,-29.5 z" />
          <path
             id="path181"
             class="s6"
             d="m 1096.5,605.7 c 47,0 85.2,38.1 85.2,85.2 0,47 -38.2,85.2 -85.2,85.2 -47.1,0 -85.2,-38.2 -85.2,-85.2 0,-47.1 38.1,-85.2 85.2,-85.2 z" />
          <path
             id="path182"
             class="s7"
             d="m 1090.6,618 c 24.8,3.5 38,25.4 29.5,49 -8.4,23.6 -35.4,40 -60.2,36.5 -24.8,-3.4 -38,-25.3 -29.6,-49 8.5,-23.6 35.5,-39.9 60.3,-36.5 z" />
          <path
             id="path183"
             class="s5"
             d="m 1055.2,786.4 h 38.8 c 7.9,1.7 15.9,2.4 22.8,2 v 58.5 c -24.5,4.3 -61.6,0.1 -61.6,-12.6 z" />
          <path
             id="path184"
             class="s4"
             d="m 1115.9,786.4 h 21.9 v 47.9 c 0,6.4 -9.5,10.7 -21.9,12.7 z" />
          <path
             id="path185"
             class="s8"
             d="m 1075.8,911 c 6.5,2.1 11.8,9.7 11.8,16.8 v 362.4 c 0,7.1 -5.3,11.3 -11.8,9.2 -6.4,-2.1 -11.8,-9.7 -11.8,-16.9 V 920.2 c 0,-7.2 5.4,-11.3 11.8,-9.2 z" />
        </g>
        <g
           id="g203"
           style="display:inline">
          <g
             id="g200">
            <path
               id="path191"
               class="s9"
               d="m 393.8,955.4 c 165,74.6 387.3,60.3 541.1,0 13.6,13.5 3.6,6.6 17.2,20.2 -167.6,141.1 -433.4,144.1 -581.6,3 13.6,-13.5 9.8,-9.7 23.3,-23.2 z" />
            <path
               id="path192"
               fill-rule="evenodd"
               class="s1"
               d="m 607,1080.9 c -89,-8.3 -173.4,-42.2 -236.5,-102.3 l 5.3,-5.2 c 68.9,60.4 142.8,93.6 231.2,107.5 z M 382.2,967 c 22.3,17 45.9,30.4 70.3,41.6 -25.4,-8.6 -51,-19.8 -76.7,-35.2 z m 7.3,-7.4 c 42.6,27.5 92.8,41.2 143.3,54.6 C 480.2,1003.8 428,992.5 382.2,967 Z" />
            <path
               id="path193"
               fill-rule="evenodd"
               class="s1"
               d="m 953.3,966.5 5.3,5.2 c -63,60.1 -147.4,94 -236.4,102.3 88.3,-14 162.3,-47.1 231.1,-107.5 z m 0,0 c -25.7,15.4 -51.2,26.6 -76.6,35.2 24.4,-11.2 48,-24.6 70.3,-41.6 z m -6.4,-6.4 C 901.2,985.6 849,997 796.4,1007.4 846.8,994 897.1,980.3 939.6,952.8 Z" />
            <path
               id="path194"
               class="s5"
               d="m 1033.8,895.9 c -3.2,-3.1 -8.4,-3.1 -11.6,0.1 l -36.2,37 11.7,11.5 36.2,-37 c 3.2,-3.2 3.1,-8.4 -0.1,-11.6 z" />
            <path
               id="path195"
               class="s6"
               d="m 975.6,914.7 c 22.4,0 40.6,18.2 40.6,40.7 0,22.4 -18.2,40.6 -40.6,40.6 -22.5,0 -40.7,-18.2 -40.7,-40.6 0,-22.5 18.2,-40.7 40.7,-40.7 z" />
            <path
               id="path196"
               class="s7"
               d="m 970.3,922 c 11.8,0 18.6,9.5 15.3,21.3 -3.3,11.7 -15.5,21.3 -27.3,21.3 -11.8,0 -18.6,-9.6 -15.3,-21.3 3.3,-11.8 15.6,-21.3 27.3,-21.3 z" />
            <path
               id="path197"
               class="s1"
               d="m 500.3,1041.7 c 98.6,45.8 216.5,37.4 319.6,0 -106,22.6 -206.9,29.6 -319.6,0 z" />
            <path
               id="path198"
               class="s1"
               d="m 540,1017.7 c 77.3,31.4 169.7,25.7 250.5,0 -83,15.5 -162.2,20.3 -250.5,0 z" />
            <path
               id="path199"
               class="s10"
               d="m 526.9,1035.2 c 72.3,30.2 158.6,25.9 234.2,2.9 -77.6,13.5 -151.6,17.1 -234.2,-2.9 z" />
            <path
               id="path200"
               class="s10"
               d="m 586,1009.2 c 50.8,20.7 111.5,16.9 164.6,0 -54.6,10.2 -106.6,13.4 -164.6,0 z" />
          </g>
          <path
             id="path201"
             class="s5"
             d="m 294.9,895.9 c 3.2,-3.1 8.4,-3.1 11.6,0.1 l 36.2,37 -11.7,11.5 -36.2,-37 c -3.2,-3.2 -3.1,-8.4 0.1,-11.6 z" />
          <path
             id="path202"
             class="s6"
             d="m 353.2,914.7 c 22.4,0 40.6,18.2 40.6,40.7 0,22.4 -18.2,40.6 -40.6,40.6 -22.5,0 -40.7,-18.2 -40.7,-40.6 0,-22.5 18.2,-40.7 40.7,-40.7 z" />
          <path
             id="path203"
             class="s7"
             d="m 347.9,922 c 11.8,0 18.6,9.5 15.3,21.3 -3.3,11.7 -15.6,21.3 -27.3,21.3 -11.8,0 -18.6,-9.6 -15.3,-21.3 3.3,-11.8 15.6,-21.3 27.3,-21.3 z" />
        </g>
      </g>
    </g>
  </g>
  <metadata
     id="metadata209">
    <rdf:RDF>
      <cc:Work
         rdf:about="">
        <dc:title>vip-entrance-publicdomainvectors</dc:title>
      </cc:Work>
    </rdf:RDF>
  </metadata>
</svg>
